<svg width="280" height="84" viewBox="0 0 280 84" fill="none" xmlns="http://www.w3.org/2000/svg">
<path fill-rule="evenodd" clip-rule="evenodd" d="M39.1179 60.5631C36.9606 58.2524 33.533 57.0988 28.8384 57.0988H15.0913C13.1274 57.0988 12.1638 56.1752 12.1638 54.3647C12.1638 53.4011 12.4706 52.5942 13.1274 52.0174C13.7809 51.4406 14.3211 51.0938 14.7445 50.9771C17.1719 51.9007 19.5192 52.3641 21.7898 52.3641C26.8712 52.3641 30.9523 50.9004 34.0332 47.9729C39.2713 43.0449 38.6144 36.8832 38.6144 36.8832H29.7587C29.7587 36.9599 29.9887 40.2341 27.6014 42.2747C26.101 43.5084 24.2138 44.2386 21.7498 44.2386C19.2858 44.2386 17.3219 43.5851 15.8982 42.2747C14.3978 40.851 13.7809 36.9599 13.7409 36.8832H4.92185C4.92185 36.9599 4.76848 40.1941 6.23221 43.3917C6.88572 44.8154 8.15607 46.5492 9.00297 47.4361C5.65205 49.36 3.99826 52.2874 3.99826 56.1752C3.99826 59.4861 5.15191 61.9501 7.46254 63.6072C4.45839 65.6478 2.91797 68.3819 2.91797 71.7695C2.91797 75.5438 4.45839 78.3913 7.49922 80.3552C10.5401 82.279 15.4714 83.2826 22.2866 83.2826C28.8718 83.2826 33.8765 81.9356 37.2641 79.2782C40.6516 76.6208 42.3454 73.4266 42.3454 69.6889C42.3521 65.8779 41.2752 62.8737 39.1179 60.5631ZM22.0999 75.1937C18.0955 75.1937 15.3214 74.7703 13.7443 73.9601C12.1672 73.1498 11.397 71.8028 11.397 69.9156C11.397 68.0684 12.1672 66.6414 13.7443 65.6411H28.5683C30.1454 65.6411 31.3391 65.9879 32.226 66.6814C33.0729 67.3749 33.5364 68.3752 33.5364 69.6856C33.5364 73.3466 29.722 75.1937 22.0999 75.1937Z" fill="white"/>
<path d="M40.761 15.1108C41.8847 17.0847 43.4918 20.5256 43.7352 22.9263C40.1142 20.0888 36.9233 16.9313 30.2682 15.9077C32.9589 13.0636 33.9392 10.8963 34.8694 8.81242C36.6933 9.39258 39.8208 13.457 40.761 15.1108ZM0.203243 19.5887C1.64364 13.3537 10.2227 7.18198 13.887 4.54792C17.1346 2.21061 21.1423 0 24.6766 0C25.7436 0 26.7639 0.203386 27.7108 0.663512C23.753 5.66488 10.6961 17.6482 1.01346 26.1272C0.0398646 23.6998 -0.236878 21.4992 0.203243 19.5887ZM5.30464 33.9727C3.34744 32.6756 2.67059 31.0385 2.04708 28.7679C12.6933 20.1322 23.8331 9.47927 29.5746 2.43733C30.3782 2.68407 32.162 5.27145 32.4087 6.72185C30.2615 11.9099 26.3471 16.1911 21.9759 20.1422C21.9559 20.1589 21.9392 20.1755 21.9192 20.1922C20.0687 21.8593 14.6305 26.734 12.6 28.1777L5.30464 33.9727ZM14.6939 30.1516C15.3441 29.6048 19.0784 27.2942 19.7419 26.744C21.3824 25.3736 23.2896 23.9166 23.6663 23.0263C26.0337 23.9466 30.0214 28.8479 31.7752 31.0952C25.9203 29.0246 18.5549 29.6748 14.6939 30.1516ZM37.04 33.9126C37.04 33.9126 36.3498 32.6423 34.9995 30.9752L33.439 28.8212C33.0422 28.3344 32.6455 27.8243 32.242 27.3075C30.5049 25.0735 28.5944 22.6262 25.9836 21.0891C26.9439 20.1522 27.8775 19.1786 28.7711 18.175C31.8786 17.6482 40.0008 22.7462 42.4682 26.3839C42.3681 27.0808 42.5882 28.1777 41.7913 30.5651C40.9277 33.1724 37.04 33.9126 37.04 33.9126Z" fill="white"/>
<path d="M69.6695 45.2591V25.2036H77.6517V60.0131H70.273V55.5186C69.4695 57.039 68.1591 58.3027 66.3486 59.3096C64.5381 60.3166 62.3142 60.82 59.6735 60.82C55.559 60.82 52.3948 59.5797 50.1842 57.099C47.9702 54.6183 46.8633 51.2974 46.8633 47.1396V25.2036H54.8455V46.0627C54.8455 51.3408 57.1027 53.9782 61.6207 53.9782C64.1247 53.9782 66.0919 53.2313 67.5223 51.7309C68.9527 50.2338 69.6695 48.0765 69.6695 45.2591Z" fill="white"/>
<path d="M102.137 24.9338V32.3792C101.51 32.2892 100.907 32.2458 100.327 32.2458C94.3352 32.2458 91.3377 35.4667 91.3377 41.9051V60.0134H83.3555V25.2039H90.7342V30.0319C92.7014 26.5876 96.1223 24.8671 100.997 24.8671L102.137 24.9338Z" fill="white"/>
<path d="M129.502 45.2591V25.2036H137.484V60.0131H130.105V55.5186C129.302 57.039 127.991 58.3027 126.181 59.3096C124.37 60.3166 122.146 60.82 119.505 60.82C115.391 60.82 112.227 59.5797 110.016 57.099C107.802 54.6183 106.695 51.2974 106.695 47.1396V25.2036H114.678V46.0627C114.678 51.3408 116.935 53.9782 121.453 53.9782C123.957 53.9782 125.924 53.2313 127.354 51.7309C128.785 50.2338 129.502 48.0765 129.502 45.2591Z" fill="white"/>
<path d="M154.943 55.452V73.9638H146.961V25.2037H154.34V30.1684C156.797 26.324 160.711 24.4002 166.076 24.4002C171.084 24.4002 175.032 26.144 177.916 29.6316C180.8 33.1192 182.244 37.4571 182.244 42.6452C182.244 47.8333 180.8 52.1578 177.916 55.6254C175.032 59.0897 171.084 60.8235 166.076 60.8235C160.978 60.8202 157.267 59.0297 154.943 55.452ZM154.676 42.6419C154.676 45.8627 155.56 48.5235 157.327 50.624C159.094 52.728 161.475 53.7749 164.469 53.7749C167.42 53.7749 169.791 52.7146 171.578 50.5874C173.365 48.4635 174.262 45.8161 174.262 42.6385C174.262 39.3743 173.368 36.6702 171.578 34.5229C169.787 32.3757 167.42 31.3021 164.469 31.3021C161.472 31.3021 159.091 32.3657 157.327 34.4896C155.557 36.6169 154.676 39.3343 154.676 42.6419Z" fill="white"/>
<path d="M196.527 60.82C192.413 60.82 189.352 59.8131 187.338 57.8026C185.327 55.792 184.32 53.1313 184.32 49.8204C184.32 45.5725 186.197 42.5984 189.955 40.9013C190.849 40.4978 191.709 40.1977 192.536 39.9944C193.363 39.7943 195.05 39.5909 197.601 39.3909C200.148 39.1908 203.526 39.0874 207.73 39.0874V37.3436C207.73 33.0958 205.249 30.9719 200.285 30.9719C195.947 30.9719 193.486 32.6923 192.906 36.1366H185.124C185.481 32.739 186.901 29.9316 189.382 27.7177C191.862 25.5037 195.563 24.3967 200.481 24.3967C205.446 24.3967 209.19 25.537 211.718 27.8177C214.245 30.0983 215.509 33.2958 215.509 37.4103V60.0132H208.13V56.3255C205.626 59.323 201.758 60.82 196.527 60.82ZM207.727 45.1224C199.945 45.1224 195.387 45.4792 194.043 46.196C192.656 46.9129 191.962 48.2066 191.962 50.0871C191.962 53.0846 193.953 54.5817 197.931 54.5817C204.459 54.5817 207.723 52.0343 207.723 46.9363V45.1224H207.727Z" fill="white"/>
<path d="M233.552 60.82C228.768 60.82 225.167 59.7031 222.753 57.4658C220.339 55.2319 219.018 52.3677 218.795 48.8801H226.507C226.597 50.4906 227.287 51.7876 228.588 52.7712C229.885 53.7548 231.695 54.2483 234.019 54.2483C236.076 54.2483 237.663 53.8915 238.78 53.1746C239.897 52.4578 240.458 51.4975 240.458 50.2905C240.458 48.9501 239.774 47.9532 238.41 47.303C237.047 46.6562 235.389 46.126 233.446 45.7159C231.498 45.3058 229.531 44.8957 227.544 44.4756C225.553 44.0588 223.876 43.0885 222.516 41.5681C221.152 40.0477 220.469 37.9705 220.469 35.3297C220.469 32.2889 221.732 29.7082 224.26 27.5843C226.787 25.4604 230.128 24.3967 234.286 24.3967C236.656 24.3967 238.747 24.7668 240.558 25.5037C242.368 26.2406 243.778 27.2142 244.782 28.4212C245.786 29.6282 246.549 30.8585 247.063 32.1088C247.576 33.3625 247.88 34.6362 247.97 35.9332H240.327C240.194 34.5462 239.601 33.3625 238.55 32.3789C237.5 31.3953 236.013 30.9019 234.089 30.9019C232.165 30.9019 230.692 31.2586 229.661 31.9688C228.631 32.6823 228.117 33.6626 228.117 34.913C228.117 36.0799 228.808 36.9635 230.191 37.567C231.575 38.1705 233.239 38.6873 235.183 39.1208C237.127 39.5542 239.097 39.9877 241.084 40.4311C243.075 40.8713 244.742 41.9015 246.086 43.5153C247.429 45.1291 248.103 47.2763 248.103 49.9537C248.103 53.0846 246.839 55.6786 244.312 57.7359C241.791 59.7898 238.204 60.82 233.552 60.82Z" fill="white"/>
<path d="M265.015 60.82C260.231 60.82 256.63 59.7031 254.216 57.4658C251.802 55.2319 250.481 52.3677 250.258 48.8801H257.97C258.06 50.4906 258.75 51.7876 260.05 52.7712C261.348 53.7548 263.158 54.2483 265.482 54.2483C267.539 54.2483 269.126 53.8915 270.243 53.1746C271.36 52.4578 271.92 51.4975 271.92 50.2905C271.92 48.9501 271.237 47.9532 269.873 47.303C268.509 46.6562 266.852 46.126 264.909 45.7159C262.961 45.3058 260.994 44.8957 259.007 44.4756C257.016 44.0588 255.343 43.0885 253.979 41.5681C252.615 40.0477 251.932 37.9705 251.932 35.3297C251.932 32.2889 253.195 29.7082 255.723 27.5843C258.25 25.4604 261.591 24.3967 265.749 24.3967C268.119 24.3967 270.21 24.7668 272.02 25.5037C273.831 26.2406 275.241 27.2142 276.245 28.4212C277.249 29.6282 278.012 30.8585 278.526 32.1088C279.039 33.3625 279.342 34.6362 279.432 35.9332H271.787C271.654 34.5462 271.06 33.3625 270.01 32.3789C268.96 31.3953 267.473 30.9019 265.549 30.9019C263.625 30.9019 262.151 31.2586 261.121 31.9688C260.09 32.6823 259.577 33.6626 259.577 34.913C259.577 36.0799 260.267 36.9635 261.651 37.567C263.035 38.1705 264.698 38.6873 266.642 39.1208C268.586 39.5542 270.557 39.9877 272.544 40.4311C274.534 40.8713 276.202 41.9015 277.545 43.5153C278.889 45.1291 279.563 47.2763 279.563 49.9537C279.563 53.0846 278.299 55.6786 275.771 57.7359C273.254 59.7898 269.663 60.82 265.015 60.82Z" fill="white"/>
</svg>
